<svg xmlns="http://www.w3.org/2000/svg" viewBox="0 0 95.76 10.14"><defs><style>.cls-1{fill:#2e3192;}</style></defs><g id="Layer_2" data-name="Layer 2"><g id="Layer_7" data-name="Layer 7"><path class="cls-1" d="M9,.17V10H6.72V6H2.27v4H0V.17H2.27V4H6.72V.17Z"/><path class="cls-1" d="M17.77,7.87H13.22L12.35,10H10L14.39.17h2.24L21,10H18.64Zm-.72-1.72L15.5,2.4,13.94,6.15Z"/><path class="cls-1" d="M22,.17H24.3V10H22Z"/><path class="cls-1" d="M32.88,10,31,7.24H28.9V10H26.63V.17h4.24c2.62,0,4.26,1.36,4.26,3.56a3.17,3.17,0,0,1-2,3.09L35.31,10ZM30.75,2H28.9V5.44h1.85c1.38,0,2.08-.65,2.08-1.71S32.13,2,30.75,2Z"/><path class="cls-1" d="M40.11,9l.77-1.71a5.79,5.79,0,0,0,3.23,1c1.35,0,1.89-.45,1.89-1.05,0-1.83-5.7-.57-5.7-4.22,0-1.66,1.35-3,4.14-3a6.52,6.52,0,0,1,3.4.87l-.7,1.72a5.52,5.52,0,0,0-2.72-.77c-1.34,0-1.86.51-1.86,1.12,0,1.81,5.7.56,5.7,4.16,0,1.64-1.36,3-4.16,3A7,7,0,0,1,40.11,9Z"/><path class="cls-1" d="M51.84,2H48.7V.17h8.55V2H54.11v8H51.84Z"/><path class="cls-1" d="M58.38,5.66V.17h2.27V5.58c0,1.86.81,2.63,2.18,2.63S65,7.44,65,5.58V.17h2.24V5.66c0,2.88-1.65,4.48-4.44,4.48S58.38,8.54,58.38,5.66Z"/><path class="cls-1" d="M69.5.17H74c3.21,0,5.41,1.93,5.41,4.9S77.16,10,74,10H69.5Zm4.34,7.94a2.93,2.93,0,0,0,3.22-3,2.93,2.93,0,0,0-3.22-3H71.76V8.11Z"/><path class="cls-1" d="M81.06.17h2.27V10H81.06Z"/><path class="cls-1" d="M85,5.07a5.37,5.37,0,1,1,5.37,5.07A5.08,5.08,0,0,1,85,5.07Zm8.44,0a3.07,3.07,0,1,0-6.14,0,3.07,3.07,0,1,0,6.14,0Z"/></g></g></svg>