<svg xmlns="http://www.w3.org/2000/svg" viewBox="0 0 133.21 131.65"><defs><style>.cls-1{fill:#2e3192;}</style></defs><g id="Layer_2" data-name="Layer 2"><g id="Layer_7" data-name="Layer 7"><path class="cls-1" d="M38.81,71.08a12.14,12.14,0,0,1-6-4.12,17.28,17.28,0,0,1-3.36-10.2L17.37,59.4A25.91,25.91,0,0,0,24.09,75a23.89,23.89,0,0,0,6.36,5.14L0,113.14l53.8-51.5-3.08-3.48Z"/><path class="cls-1" d="M94.38,48.75,133.21,6.66,88.49,49.47l-.36.06L63.88,72.74l-6.94,6.64c.37-.22.73-.45,1.08-.68a47,47,0,0,0-1.43,11.67c0,11.28,3.48,21.48,12.84,30.24a40.1,40.1,0,0,0,28.32,11,43.68,43.68,0,0,0,22-6V111.13c-4.56,4.32-12,9.24-21.6,9.24-17,0-29.28-13.08-29.28-30C68.83,72.73,80.59,59.9,98,59.9c4.56,0,12.84.83,21.72,8.87V54.38c-7-4.44-14-5.76-21.36-5.76C97,48.62,95.68,48.67,94.38,48.75Z"/><path class="cls-1" d="M67.14,48.6c-2.29-5.66-7.38-10.75-17.25-14.76l-8-3.24c-7.8-3.12-8.64-7.32-8.64-9.72,0-5.16,3.84-9.6,11.28-9.6A12.39,12.39,0,0,1,56.73,19.2l9.84-5.76a27.26,27.26,0,0,0-6.12-8C57.93,3.24,53,0,44.37,0,29.37,0,21,10.32,21,21.12c0,12,9.72,17.52,16.32,20.28L45,44.64c5.28,2.16,11.52,5.52,11.52,13.68,0,.17,0,.33,0,.5Z"/></g></g></svg>