<svg width="213" height="130" viewBox="0 0 213 130" fill="none" xmlns="http://www.w3.org/2000/svg">
<path d="M84.6648 100V93.8636L107.71 68.6364C110.415 65.6818 112.642 63.1136 114.392 60.9318C116.142 58.7273 117.438 56.6591 118.278 54.7273C119.142 52.7727 119.574 50.7273 119.574 48.5909C119.574 46.1364 118.983 44.0114 117.801 42.2159C116.642 40.4205 115.051 39.0341 113.028 38.0568C111.006 37.0795 108.733 36.5909 106.21 36.5909C103.528 36.5909 101.188 37.1477 99.1875 38.2614C97.2102 39.3523 95.6761 40.8864 94.5852 42.8636C93.517 44.8409 92.983 47.1591 92.983 49.8182H84.9375C84.9375 45.7273 85.8807 42.1364 87.767 39.0455C89.6534 35.9545 92.2216 33.5455 95.4716 31.8182C98.7443 30.0909 102.415 29.2273 106.483 29.2273C110.574 29.2273 114.199 30.0909 117.358 31.8182C120.517 33.5455 122.994 35.875 124.79 38.8068C126.585 41.7386 127.483 45 127.483 48.5909C127.483 51.1591 127.017 53.6705 126.085 56.125C125.176 58.5568 123.585 61.2727 121.312 64.2727C119.062 67.25 115.938 70.8864 111.938 75.1818L96.2557 91.9545V92.5H128.71V100H84.6648Z" fill="#252525"/>
</svg>
