<svg width="213" height="130" viewBox="0 0 213 130" fill="none" xmlns="http://www.w3.org/2000/svg">
<path d="M106.256 100.955C101.756 100.955 97.7443 100.182 94.2216 98.6364C90.7216 97.0909 87.9375 94.9432 85.8693 92.1932C83.8239 89.4205 82.7102 86.2045 82.5284 82.5455H91.1193C91.3011 84.7955 92.0739 86.7386 93.4375 88.375C94.8011 89.9886 96.5852 91.2386 98.7898 92.125C100.994 93.0114 103.438 93.4545 106.119 93.4545C109.119 93.4545 111.778 92.9318 114.097 91.8864C116.415 90.8409 118.233 89.3864 119.551 87.5227C120.869 85.6591 121.528 83.5 121.528 81.0455C121.528 78.4773 120.892 76.2159 119.619 74.2614C118.347 72.2841 116.483 70.7386 114.028 69.625C111.574 68.5114 108.574 67.9545 105.028 67.9545H99.4375V60.4545H105.028C107.801 60.4545 110.233 59.9545 112.324 58.9545C114.438 57.9545 116.085 56.5455 117.267 54.7273C118.472 52.9091 119.074 50.7727 119.074 48.3182C119.074 45.9545 118.551 43.8977 117.506 42.1477C116.46 40.3977 114.983 39.0341 113.074 38.0568C111.188 37.0795 108.96 36.5909 106.392 36.5909C103.983 36.5909 101.71 37.0341 99.5739 37.9205C97.4602 38.7841 95.733 40.0455 94.392 41.7045C93.0511 43.3409 92.3239 45.3182 92.2102 47.6364H84.0284C84.1648 43.9773 85.267 40.7727 87.3352 38.0227C89.4034 35.25 92.108 33.0909 95.4489 31.5455C98.8125 30 102.506 29.2273 106.528 29.2273C110.847 29.2273 114.551 30.1023 117.642 31.8523C120.733 33.5795 123.108 35.8636 124.767 38.7045C126.426 41.5455 127.256 44.6136 127.256 47.9091C127.256 51.8409 126.222 55.1932 124.153 57.9659C122.108 60.7386 119.324 62.6591 115.801 63.7273V64.2727C120.21 65 123.653 66.875 126.131 69.8977C128.608 72.8977 129.847 76.6136 129.847 81.0455C129.847 84.8409 128.813 88.25 126.744 91.2727C124.699 94.2727 121.903 96.6364 118.358 98.3636C114.813 100.091 110.778 100.955 106.256 100.955Z" fill="black"/>
</svg>
