<svg width="213" height="130" viewBox="0 0 213 130" fill="none" xmlns="http://www.w3.org/2000/svg">
<path d="M106.342 100.955C102.342 100.955 98.7401 100.159 95.5355 98.5682C92.331 96.9773 89.7628 94.7955 87.831 92.0227C85.8991 89.25 84.8423 86.0909 84.6605 82.5455H92.8423C93.1605 85.7045 94.5923 88.3182 97.1378 90.3864C99.706 92.4318 102.774 93.4545 106.342 93.4545C109.206 93.4545 111.751 92.7841 113.979 91.4432C116.229 90.1023 117.99 88.2614 119.263 85.9205C120.558 83.5568 121.206 80.8864 121.206 77.9091C121.206 74.8636 120.536 72.1477 119.195 69.7614C117.876 67.3523 116.058 65.4545 113.74 64.0682C111.422 62.6818 108.774 61.9773 105.797 61.9545C103.661 61.9318 101.467 62.2614 99.2173 62.9432C96.9673 63.6023 95.1151 64.4545 93.6605 65.5L85.7514 64.5455L89.9787 30.1818H126.251V37.6818H97.0696L94.6151 58.2727H95.0241C96.456 57.1364 98.2514 56.1932 100.411 55.4432C102.57 54.6932 104.82 54.3182 107.161 54.3182C111.433 54.3182 115.24 55.3409 118.581 57.3864C121.945 59.4091 124.581 62.1818 126.49 65.7045C128.422 69.2273 129.388 73.25 129.388 77.7727C129.388 82.2273 128.388 86.2045 126.388 89.7045C124.411 93.1818 121.683 95.9318 118.206 97.9545C114.729 99.9545 110.774 100.955 106.342 100.955Z" fill="black"/>
</svg>
