<svg width="213" height="130" viewBox="0 0 213 130" fill="none" xmlns="http://www.w3.org/2000/svg">
<path d="M106.456 100.955C103.592 100.909 100.729 100.364 97.8651 99.3182C95.0014 98.2727 92.3878 96.5114 90.0241 94.0341C87.6605 91.5341 85.7628 88.1591 84.331 83.9091C82.8991 79.6364 82.1832 74.2727 82.1832 67.8182C82.1832 61.6364 82.7628 56.1591 83.9219 51.3864C85.081 46.5909 86.7628 42.5568 88.9673 39.2841C91.1719 35.9886 93.831 33.4886 96.9446 31.7841C100.081 30.0795 103.615 29.2273 107.547 29.2273C111.456 29.2273 114.933 30.0114 117.979 31.5795C121.047 33.125 123.547 35.2841 125.479 38.0568C127.411 40.8295 128.661 44.0227 129.229 47.6364H120.911C120.138 44.5 118.638 41.8977 116.411 39.8295C114.183 37.7614 111.229 36.7273 107.547 36.7273C102.138 36.7273 97.8764 39.0795 94.7628 43.7841C91.6719 48.4886 90.1151 55.0909 90.0923 63.5909H90.6378C91.9105 61.6591 93.4219 60.0114 95.1719 58.6477C96.9446 57.2614 98.8991 56.1932 101.036 55.4432C103.172 54.6932 105.433 54.3182 107.82 54.3182C111.82 54.3182 115.479 55.3182 118.797 57.3182C122.115 59.2955 124.774 62.0341 126.774 65.5341C128.774 69.0114 129.774 73 129.774 77.5C129.774 81.8182 128.808 85.7727 126.876 89.3636C124.945 92.9318 122.229 95.7727 118.729 97.8864C115.251 99.9773 111.161 101 106.456 100.955ZM106.456 93.4545C109.32 93.4545 111.888 92.7386 114.161 91.3068C116.456 89.875 118.263 87.9545 119.581 85.5455C120.922 83.1364 121.592 80.4545 121.592 77.5C121.592 74.6136 120.945 71.9886 119.649 69.625C118.376 67.2386 116.615 65.3409 114.365 63.9318C112.138 62.5227 109.592 61.8182 106.729 61.8182C104.57 61.8182 102.558 62.25 100.695 63.1136C98.831 63.9545 97.1946 65.1136 95.7855 66.5909C94.3991 68.0682 93.3082 69.7614 92.5128 71.6705C91.7173 73.5568 91.3196 75.5455 91.3196 77.6364C91.3196 80.4091 91.9673 83 93.2628 85.4091C94.581 87.8182 96.3764 89.7614 98.6491 91.2386C100.945 92.7159 103.547 93.4545 106.456 93.4545Z" fill="#252525"/>
</svg>
