<svg width="213" height="130" viewBox="0 0 213 130" fill="none" xmlns="http://www.w3.org/2000/svg">
<path d="M106.013 100.955C101.331 100.955 97.1946 100.125 93.6037 98.4659C90.0355 96.7841 87.2514 94.4773 85.2514 91.5455C83.2514 88.5909 82.2628 85.2273 82.2855 81.4545C82.2628 78.5 82.8423 75.7727 84.0241 73.2727C85.206 70.75 86.8196 68.6477 88.8651 66.9659C90.9332 65.2614 93.2401 64.1818 95.7855 63.7273V63.3182C92.4446 62.4545 89.7855 60.5795 87.8082 57.6932C85.831 54.7841 84.8537 51.4773 84.8764 47.7727C84.8537 44.2273 85.7514 41.0568 87.5696 38.2614C89.3878 35.4659 91.8878 33.2614 95.0696 31.6477C98.2741 30.0341 101.922 29.2273 106.013 29.2273C110.058 29.2273 113.672 30.0341 116.854 31.6477C120.036 33.2614 122.536 35.4659 124.354 38.2614C126.195 41.0568 127.126 44.2273 127.149 47.7727C127.126 51.4773 126.115 54.7841 124.115 57.6932C122.138 60.5795 119.513 62.4545 116.24 63.3182V63.7273C118.763 64.1818 121.036 65.2614 123.058 66.9659C125.081 68.6477 126.695 70.75 127.899 73.2727C129.104 75.7727 129.717 78.5 129.74 81.4545C129.717 85.2273 128.695 88.5909 126.672 91.5455C124.672 94.4773 121.888 96.7841 118.32 98.4659C114.774 100.125 110.672 100.955 106.013 100.955ZM106.013 93.4545C109.172 93.4545 111.899 92.9432 114.195 91.9205C116.49 90.8977 118.263 89.4545 119.513 87.5909C120.763 85.7273 121.399 83.5455 121.422 81.0455C121.399 78.4091 120.717 76.0795 119.376 74.0568C118.036 72.0341 116.206 70.4432 113.888 69.2841C111.592 68.125 108.967 67.5455 106.013 67.5455C103.036 67.5455 100.376 68.125 98.0355 69.2841C95.7173 70.4432 93.8878 72.0341 92.5469 74.0568C91.2287 76.0795 90.581 78.4091 90.6037 81.0455C90.581 83.5455 91.1832 85.7273 92.4105 87.5909C93.6605 89.4545 95.4446 90.8977 97.7628 91.9205C100.081 92.9432 102.831 93.4545 106.013 93.4545ZM106.013 60.3182C108.513 60.3182 110.729 59.8182 112.661 58.8182C114.615 57.8182 116.149 56.4205 117.263 54.625C118.376 52.8295 118.945 50.7273 118.967 48.3182C118.945 45.9545 118.388 43.8977 117.297 42.1477C116.206 40.375 114.695 39.0114 112.763 38.0568C110.831 37.0795 108.581 36.5909 106.013 36.5909C103.399 36.5909 101.115 37.0795 99.1605 38.0568C97.206 39.0114 95.6946 40.375 94.6264 42.1477C93.5582 43.8977 93.0355 45.9545 93.0582 48.3182C93.0355 50.7273 93.5696 52.8295 94.6605 54.625C95.7741 56.4205 97.3082 57.8182 99.2628 58.8182C101.217 59.8182 103.467 60.3182 106.013 60.3182Z" fill="black"/>
</svg>
