<svg width="213" height="130" viewBox="0 0 213 130" fill="none" xmlns="http://www.w3.org/2000/svg">
<path d="M105.501 29.2273C108.365 29.25 111.229 29.7955 114.092 30.8636C116.956 31.9318 119.57 33.7045 121.933 36.1818C124.297 38.6364 126.195 41.9886 127.626 46.2386C129.058 50.4886 129.774 55.8182 129.774 62.2273C129.774 68.4318 129.183 73.9432 128.001 78.7614C126.842 83.5568 125.161 87.6023 122.956 90.8977C120.774 94.1932 118.115 96.6932 114.979 98.3977C111.865 100.102 108.342 100.955 104.411 100.955C100.501 100.955 97.0128 100.182 93.9446 98.6364C90.8991 97.0682 88.3991 94.8977 86.4446 92.125C84.5128 89.3295 83.2741 86.0909 82.7287 82.4091H91.0469C91.7969 85.6136 93.2855 88.2614 95.5128 90.3523C97.7628 92.4205 100.729 93.4545 104.411 93.4545C109.797 93.4545 114.047 91.1023 117.161 86.3977C120.297 81.6932 121.865 75.0455 121.865 66.4545H121.32C120.047 68.3636 118.536 70.0114 116.786 71.3977C115.036 72.7841 113.092 73.8523 110.956 74.6023C108.82 75.3523 106.547 75.7273 104.138 75.7273C100.138 75.7273 96.4673 74.7386 93.1264 72.7614C89.8082 70.7614 87.1491 68.0227 85.1491 64.5455C83.1719 61.0455 82.1832 57.0455 82.1832 52.5455C82.1832 48.2727 83.1378 44.3636 85.0469 40.8182C86.9787 37.25 89.6832 34.4091 93.1605 32.2955C96.6605 30.1818 100.774 29.1591 105.501 29.2273ZM105.501 36.7273C102.638 36.7273 100.058 37.4432 97.7628 38.875C95.4901 40.2841 93.6832 42.1932 92.3423 44.6023C91.0241 46.9886 90.3651 49.6364 90.3651 52.5455C90.3651 55.4545 91.0014 58.1023 92.2741 60.4886C93.5696 62.8523 95.331 64.7386 97.5582 66.1477C99.8082 67.5341 102.365 68.2273 105.229 68.2273C107.388 68.2273 109.399 67.8068 111.263 66.9659C113.126 66.1023 114.751 64.9318 116.138 63.4545C117.547 61.9545 118.649 60.2614 119.445 58.375C120.24 56.4659 120.638 54.4773 120.638 52.4091C120.638 49.6818 119.979 47.125 118.661 44.7386C117.365 42.3523 115.57 40.4205 113.274 38.9432C111.001 37.4659 108.411 36.7273 105.501 36.7273Z" fill="black"/>
</svg>
