<svg width="130" height="213" viewBox="0 0 130 213" fill="none" xmlns="http://www.w3.org/2000/svg">
<path d="M62.7939 100.867H55.0169C54.8748 99.861 54.5848 98.9673 54.1468 98.1861C53.7089 97.393 53.1466 96.7183 52.46 96.1619C51.7735 95.6056 50.9804 95.1794 50.0808 94.8835C49.193 94.5876 48.2283 94.4396 47.1866 94.4396C45.3045 94.4396 43.6651 94.9072 42.2683 95.8423C40.8715 96.7656 39.7884 98.1151 39.019 99.8906C38.2496 101.654 37.8649 103.797 37.8649 106.318C37.8649 108.911 38.2496 111.089 39.019 112.852C39.8002 114.616 40.8893 115.948 42.286 116.847C43.6828 117.747 45.2986 118.197 47.1333 118.197C48.1632 118.197 49.1161 118.061 49.992 117.788C50.8798 117.516 51.667 117.12 52.3535 116.599C53.0401 116.066 53.6083 115.421 54.0581 114.663C54.5197 113.906 54.8393 113.042 55.0169 112.071L62.7939 112.107C62.5926 113.776 62.0895 115.385 61.2846 116.936C60.4915 118.475 59.4203 119.854 58.0708 121.073C56.7333 122.281 55.1352 123.239 53.2768 123.95C51.4302 124.648 49.341 124.997 47.0091 124.997C43.7657 124.997 40.8656 124.263 38.3088 122.795C35.7638 121.328 33.7515 119.203 32.2718 116.421C30.804 113.639 30.0701 110.272 30.0701 106.318C30.0701 102.353 30.8159 98.9792 32.3074 96.1974C33.7988 93.4157 35.823 91.2969 38.3798 89.8409C40.9366 88.3731 43.813 87.6392 47.0091 87.6392C49.1161 87.6392 51.0692 87.9351 52.8684 88.527C54.6795 89.1188 56.2834 89.983 57.6802 91.1193C59.077 92.2438 60.2134 93.6229 61.0893 95.2564C61.9771 96.8899 62.5453 98.7602 62.7939 100.867ZM68.307 124.5V88.1364H75.9952V103.14H91.6025V88.1364H99.2729V124.5H91.6025V109.479H75.9952V124.5H68.307Z" fill="black"/>
<path d="M63.5091 50.5142V27.0767H67.4864V50.5142H63.5091ZM53.779 40.7841V36.8068H77.2165V40.7841H53.779Z" fill="black"/>
<path d="M72.9612 178.957V182.864H57.0521V178.957H72.9612Z" fill="black"/>
</svg>
