<svg width="90" height="90" viewBox="0 0 90 90" fill="none" xmlns="http://www.w3.org/2000/svg">
<path d="M19.6566 36.5455V54H15.9663V36.5455H19.6566ZM26.2553 46.4318V54H22.6246V40.9091H26.0849V43.2188H26.2383C26.5281 42.4574 27.0138 41.8551 27.6957 41.4119C28.3775 40.9631 29.2042 40.7386 30.1758 40.7386C31.0849 40.7386 31.8775 40.9375 32.5536 41.3352C33.2298 41.733 33.7553 42.3011 34.1303 43.0398C34.5053 43.7727 34.6928 44.6477 34.6928 45.6648V54H31.0621V46.3125C31.0678 45.5114 30.8633 44.8864 30.4485 44.4375C30.0337 43.983 29.4627 43.7557 28.7354 43.7557C28.2468 43.7557 27.815 43.8608 27.44 44.071C27.0707 44.2812 26.7809 44.5881 26.5707 44.9915C26.3661 45.3892 26.261 45.8693 26.2553 46.4318ZM37.5543 58.9091V40.9091H41.1339V43.108H41.2958C41.4549 42.7557 41.685 42.3977 41.9862 42.0341C42.293 41.6648 42.6907 41.358 43.1793 41.1136C43.6737 40.8636 44.2873 40.7386 45.0202 40.7386C45.9748 40.7386 46.8555 40.9886 47.6623 41.4886C48.4691 41.983 49.114 42.7301 49.5969 43.7301C50.0799 44.7244 50.3214 45.9716 50.3214 47.4716C50.3214 48.9318 50.0856 50.1648 49.614 51.1705C49.1481 52.1705 48.5117 52.929 47.7049 53.446C46.9038 53.9574 46.006 54.2131 45.0117 54.2131C44.3072 54.2131 43.7077 54.0966 43.2134 53.8636C42.7248 53.6307 42.3242 53.3381 42.0117 52.9858C41.6992 52.6278 41.4606 52.267 41.2958 51.9034H41.185V58.9091H37.5543ZM41.1083 47.4545C41.1083 48.233 41.2163 48.9119 41.4322 49.4915C41.6481 50.071 41.9606 50.5227 42.3697 50.8466C42.7788 51.1648 43.2759 51.3239 43.8612 51.3239C44.4521 51.3239 44.9521 51.1619 45.3612 50.8381C45.7702 50.5085 46.0799 50.054 46.2901 49.4744C46.506 48.8892 46.614 48.2159 46.614 47.4545C46.614 46.6989 46.5089 46.0341 46.2987 45.4602C46.0884 44.8864 45.7788 44.4375 45.3697 44.1136C44.9606 43.7898 44.4577 43.6278 43.8612 43.6278C43.2702 43.6278 42.7702 43.7841 42.3612 44.0966C41.9577 44.4091 41.6481 44.8523 41.4322 45.4261C41.2163 46 41.1083 46.6761 41.1083 47.4545ZM61.1367 48.4261V40.9091H64.7674V54H61.2816V51.6222H61.1452C60.8498 52.3892 60.3583 53.0057 59.6708 53.4716C58.989 53.9375 58.1566 54.1705 57.1737 54.1705C56.2987 54.1705 55.5288 53.9716 54.864 53.5739C54.1992 53.1761 53.6793 52.6108 53.3043 51.8778C52.935 51.1449 52.7475 50.267 52.7418 49.2443V40.9091H56.3725V48.5966C56.3782 49.3693 56.5856 49.9801 56.9947 50.429C57.4038 50.8778 57.9521 51.1023 58.6396 51.1023C59.0771 51.1023 59.4862 51.0028 59.8668 50.804C60.2475 50.5994 60.5543 50.2983 60.7873 49.9006C61.0259 49.5028 61.1424 49.0114 61.1367 48.4261ZM74.6346 40.9091V43.6364H66.7511V40.9091H74.6346ZM68.5408 37.7727H72.1715V49.9773C72.1715 50.3125 72.2227 50.5739 72.3249 50.7614C72.4272 50.9432 72.5692 51.071 72.7511 51.1449C72.9386 51.2187 73.1545 51.2557 73.3988 51.2557C73.5692 51.2557 73.7397 51.2415 73.9102 51.2131C74.0806 51.179 74.2113 51.1534 74.3022 51.1364L74.8732 53.8381C74.6914 53.8949 74.4357 53.9602 74.1062 54.0341C73.7766 54.1136 73.3761 54.1619 72.9045 54.179C72.0295 54.2131 71.2624 54.0966 70.6033 53.8295C69.9499 53.5625 69.4414 53.1477 69.0778 52.5852C68.7141 52.0227 68.5352 51.3125 68.5408 50.4545V37.7727Z" fill="black"/>
</svg>
