<svg width="90" height="90" viewBox="0 0 90 90" fill="none" xmlns="http://www.w3.org/2000/svg">
<path d="M38.585 22.7499C39.0086 22.954 39.366 23.2733 39.6163 23.6713C39.8666 24.0693 39.9996 24.5298 40 24.9999V64.9999C39.9993 65.4704 39.8659 65.931 39.6152 66.3291C39.3644 66.7271 39.0064 67.0462 38.5824 67.2499C38.1583 67.4536 37.6854 67.5335 37.218 67.4804C36.7506 67.4273 36.3076 67.2435 35.94 66.9499L24.125 57.4999H12.5C11.837 57.4999 11.2011 57.2365 10.7322 56.7677C10.2634 56.2989 10 55.663 10 54.9999V34.9999C10 34.3369 10.2634 33.701 10.7322 33.2322C11.2011 32.7633 11.837 32.4999 12.5 32.4999H24.125L35.94 23.0499C36.3079 22.7559 36.7513 22.5717 37.2193 22.5186C37.6872 22.4655 38.1606 22.5457 38.585 22.7499V22.7499ZM74.27 33.2299C74.5028 33.4622 74.6875 33.738 74.8136 34.0418C74.9396 34.3455 75.0045 34.6711 75.0045 34.9999C75.0045 35.3288 74.9396 35.6544 74.8136 35.9581C74.6875 36.2618 74.5028 36.5377 74.27 36.7699L66.035 44.9999L74.27 53.2299C74.7394 53.6994 75.0032 54.336 75.0032 54.9999C75.0032 55.6638 74.7394 56.3005 74.27 56.7699C73.8006 57.2394 73.1639 57.5031 72.5 57.5031C71.8361 57.5031 71.1994 57.2394 70.73 56.7699L62.5 48.5349L54.27 56.7699C53.8006 57.2394 53.1639 57.5031 52.5 57.5031C51.8361 57.5031 51.1994 57.2394 50.73 56.7699C50.2606 56.3005 49.9968 55.6638 49.9968 54.9999C49.9968 54.336 50.2606 53.6994 50.73 53.2299L58.965 44.9999L50.73 36.7699C50.4976 36.5375 50.3132 36.2615 50.1874 35.9578C50.0616 35.6541 49.9968 35.3286 49.9968 34.9999C49.9968 34.6712 50.0616 34.3457 50.1874 34.042C50.3132 33.7383 50.4976 33.4624 50.73 33.2299C51.1994 32.7605 51.8361 32.4968 52.5 32.4968C52.8287 32.4968 53.1542 32.5615 53.4579 32.6873C53.7616 32.8131 54.0376 32.9975 54.27 33.2299L62.5 41.4649L70.73 33.2299C70.9622 32.9971 71.2381 32.8124 71.5418 32.6864C71.8456 32.5603 72.1712 32.4955 72.5 32.4955C72.8288 32.4955 73.1544 32.5603 73.4582 32.6864C73.7619 32.8124 74.0378 32.9971 74.27 33.2299V33.2299Z" fill="black"/>
</svg>
