<svg width="90" height="90" viewBox="0 0 90 90" fill="none" xmlns="http://www.w3.org/2000/svg">
<path d="M9.53267 54V36.5455H16.419C17.7429 36.5455 18.8707 36.7983 19.8026 37.304C20.7344 37.804 21.4446 38.5 21.9332 39.392C22.4276 40.2784 22.6747 41.3011 22.6747 42.4602C22.6747 43.6193 22.4247 44.642 21.9247 45.5284C21.4247 46.4148 20.7003 47.1051 19.7514 47.5994C18.8082 48.0937 17.6662 48.3409 16.3253 48.3409H11.9361V45.3835H15.7287C16.4389 45.3835 17.0241 45.2614 17.4844 45.017C17.9503 44.767 18.2969 44.4233 18.5241 43.9858C18.7571 43.5426 18.8736 43.0341 18.8736 42.4602C18.8736 41.8807 18.7571 41.375 18.5241 40.9432C18.2969 40.5057 17.9503 40.1676 17.4844 39.929C17.0185 39.6847 16.4276 39.5625 15.7116 39.5625H13.223V54H9.53267ZM30.7074 54.2557C29.3835 54.2557 28.2386 53.9744 27.2727 53.4119C26.3125 52.8437 25.571 52.054 25.0483 51.0426C24.5256 50.0256 24.2642 48.8466 24.2642 47.5057C24.2642 46.1534 24.5256 44.9716 25.0483 43.9602C25.571 42.9432 26.3125 42.1534 27.2727 41.5909C28.2386 41.0227 29.3835 40.7386 30.7074 40.7386C32.0312 40.7386 33.1733 41.0227 34.1335 41.5909C35.0994 42.1534 35.8438 42.9432 36.3665 43.9602C36.8892 44.9716 37.1506 46.1534 37.1506 47.5057C37.1506 48.8466 36.8892 50.0256 36.3665 51.0426C35.8438 52.054 35.0994 52.8437 34.1335 53.4119C33.1733 53.9744 32.0312 54.2557 30.7074 54.2557ZM30.7244 51.4432C31.3267 51.4432 31.8295 51.2727 32.233 50.9318C32.6364 50.5852 32.9403 50.1136 33.1449 49.517C33.3551 48.9205 33.4602 48.2415 33.4602 47.4801C33.4602 46.7188 33.3551 46.0398 33.1449 45.4432C32.9403 44.8466 32.6364 44.375 32.233 44.0284C31.8295 43.6818 31.3267 43.5085 30.7244 43.5085C30.1165 43.5085 29.6051 43.6818 29.1903 44.0284C28.7813 44.375 28.4716 44.8466 28.2614 45.4432C28.0568 46.0398 27.9545 46.7188 27.9545 47.4801C27.9545 48.2415 28.0568 48.9205 28.2614 49.517C28.4716 50.1136 28.7813 50.5852 29.1903 50.9318C29.6051 51.2727 30.1165 51.4432 30.7244 51.4432ZM41.7656 54L38.2031 40.9091H41.8764L43.9048 49.7045H44.0241L46.1378 40.9091H49.7429L51.8906 49.6534H52.0014L53.9957 40.9091H57.6605L54.1065 54H50.2628L48.0128 45.767H47.8509L45.6009 54H41.7656ZM65.2351 54.2557C63.8885 54.2557 62.7294 53.983 61.7578 53.4375C60.7919 52.8864 60.0476 52.108 59.5249 51.1023C59.0021 50.0909 58.7408 48.8949 58.7408 47.5142C58.7408 46.1676 59.0021 44.9858 59.5249 43.9688C60.0476 42.9517 60.7834 42.1591 61.7322 41.5909C62.6868 41.0227 63.8061 40.7386 65.0902 40.7386C65.9538 40.7386 66.7578 40.8778 67.5021 41.1562C68.2521 41.429 68.9055 41.8409 69.4624 42.392C70.0249 42.9432 70.4624 43.6364 70.7749 44.4716C71.0874 45.3011 71.2436 46.2727 71.2436 47.3864V48.3835H60.1896V46.1335H67.826C67.826 45.6108 67.7124 45.1477 67.4851 44.7443C67.2578 44.3409 66.9425 44.0256 66.5391 43.7983C66.1413 43.5653 65.6783 43.4489 65.1499 43.4489C64.5987 43.4489 64.1101 43.5767 63.6839 43.8324C63.2635 44.0824 62.9339 44.4205 62.6953 44.8466C62.4567 45.267 62.3345 45.7358 62.3288 46.2528V48.392C62.3288 49.0398 62.4482 49.5994 62.6868 50.071C62.9311 50.5426 63.2749 50.9062 63.718 51.1619C64.1612 51.4176 64.6868 51.5455 65.2947 51.5455C65.6982 51.5455 66.0675 51.4886 66.4027 51.375C66.7379 51.2614 67.0249 51.0909 67.2635 50.8636C67.5021 50.6364 67.6839 50.358 67.8089 50.0284L71.1669 50.25C70.9964 51.0568 70.647 51.7614 70.1186 52.3636C69.5959 52.9602 68.9197 53.4261 68.0902 53.7614C67.2663 54.0909 66.3146 54.2557 65.2351 54.2557ZM73.6129 54V40.9091H77.1328V43.1932H77.2692C77.5078 42.3807 77.9084 41.767 78.4709 41.3523C79.0334 40.9318 79.6811 40.7216 80.4141 40.7216C80.5959 40.7216 80.7919 40.733 81.0021 40.7557C81.2124 40.7784 81.397 40.8097 81.5561 40.8494V44.071C81.3857 44.0199 81.1499 43.9744 80.8487 43.9347C80.5476 43.8949 80.272 43.875 80.022 43.875C79.4879 43.875 79.0107 43.9915 78.5902 44.2244C78.1754 44.4517 77.8459 44.7699 77.6016 45.179C77.3629 45.5881 77.2436 46.0597 77.2436 46.5938V54H73.6129Z" fill="black"/>
</svg>
