<svg width="90" height="90" viewBox="0 0 90 90" fill="none" xmlns="http://www.w3.org/2000/svg">
<path d="M45 71.25C38.0381 71.25 31.3613 68.4844 26.4384 63.5616C21.5156 58.6387 18.75 51.9619 18.75 45C18.75 38.0381 21.5156 31.3613 26.4384 26.4384C31.3613 21.5156 38.0381 18.75 45 18.75C51.9619 18.75 58.6387 21.5156 63.5616 26.4384C68.4844 31.3613 71.25 38.0381 71.25 45C71.25 51.9619 68.4844 58.6387 63.5616 63.5616C58.6387 68.4844 51.9619 71.25 45 71.25ZM45 75C52.9565 75 60.5871 71.8393 66.2132 66.2132C71.8393 60.5871 75 52.9565 75 45C75 37.0435 71.8393 29.4129 66.2132 23.7868C60.5871 18.1607 52.9565 15 45 15C37.0435 15 29.4129 18.1607 23.7868 23.7868C18.1607 29.4129 15 37.0435 15 45C15 52.9565 18.1607 60.5871 23.7868 66.2132C29.4129 71.8393 37.0435 75 45 75V75Z" fill="#F24E1E"/>
<path d="M56.25 45C56.25 47.9837 55.0647 50.8452 52.955 52.955C50.8452 55.0647 47.9837 56.25 45 56.25C42.0163 56.25 39.1548 55.0647 37.045 52.955C34.9353 50.8452 33.75 47.9837 33.75 45C33.75 42.0163 34.9353 39.1548 37.045 37.045C39.1548 34.9353 42.0163 33.75 45 33.75C47.9837 33.75 50.8452 34.9353 52.955 37.045C55.0647 39.1548 56.25 42.0163 56.25 45V45Z" fill="#F24E1E"/>
</svg>
