<svg width="131" height="214" viewBox="0 0 131 214" fill="none" xmlns="http://www.w3.org/2000/svg">
<path d="M23.8141 88.6364L32.6032 116.264H32.9405L41.7473 88.6364H50.2701L37.7346 125H27.8269L15.2736 88.6364H23.8141ZM86.0123 106.818C86.0123 110.784 85.2606 114.157 83.7573 116.939C82.2658 119.721 80.2298 121.845 77.6493 123.313C75.0807 124.769 72.1924 125.497 68.9846 125.497C65.753 125.497 62.8529 124.763 60.2843 123.295C57.7156 121.828 55.6855 119.703 54.1941 116.921C52.7026 114.139 51.9569 110.772 51.9569 106.818C51.9569 102.853 52.7026 99.4792 54.1941 96.6974C55.6855 93.9157 57.7156 91.7969 60.2843 90.3409C62.8529 88.8731 65.753 88.1392 68.9846 88.1392C72.1924 88.1392 75.0807 88.8731 77.6493 90.3409C80.2298 91.7969 82.2658 93.9157 83.7573 96.6974C85.2606 99.4792 86.0123 102.853 86.0123 106.818ZM78.2175 106.818C78.2175 104.25 77.8328 102.083 77.0634 100.32C76.3058 98.5559 75.2346 97.2183 73.8496 96.3068C72.4647 95.3954 70.843 94.9396 68.9846 94.9396C67.1261 94.9396 65.5044 95.3954 64.1195 96.3068C62.7346 97.2183 61.6574 98.5559 60.888 100.32C60.1304 102.083 59.7516 104.25 59.7516 106.818C59.7516 109.387 60.1304 111.553 60.888 113.317C61.6574 115.08 62.7346 116.418 64.1195 117.33C65.5044 118.241 67.1261 118.697 68.9846 118.697C70.843 118.697 72.4647 118.241 73.8496 117.33C75.2346 116.418 76.3058 115.08 77.0634 113.317C77.8328 111.553 78.2175 109.387 78.2175 106.818ZM91.7074 125V88.6364H99.3956V118.661H114.985V125H91.7074Z" fill="black"/>
<path d="M63.5091 50.5142V27.0767H67.4864V50.5142H63.5091ZM53.779 40.7841V36.8068H77.2165V40.7841H53.779Z" fill="black"/>
<path d="M73.4612 179.457V183.364H57.5521V179.457H73.4612Z" fill="black"/>
</svg>
