<svg width="8121" height="861" viewBox="0 0 8121 861" fill="none" xmlns="http://www.w3.org/2000/svg">
<path d="M0.272003 843V17.7458H688.521C740.099 17.7458 781.649 22.044 813.169 30.6404C844.689 38.8787 868.866 51.236 885.701 67.7124C902.894 83.8307 914.356 104.068 920.087 128.424C925.817 152.781 928.683 180.719 928.683 212.239C928.683 235.163 926.713 255.4 922.773 272.951C918.833 290.502 913.639 305.725 907.192 318.62C900.745 331.514 893.402 342.439 885.164 351.394C876.925 359.99 868.508 367.154 859.912 372.885C839.853 386.495 816.93 394.196 791.141 395.987C823.377 397.778 852.032 405.658 877.105 419.627C887.85 425.717 898.237 433.417 908.266 442.73C918.654 451.685 927.787 462.968 935.667 476.579C943.906 489.831 950.532 505.591 955.547 523.859C960.561 541.768 963.069 562.543 963.069 586.183C963.069 614.837 961.636 641.164 958.77 665.162C956.263 688.802 950.89 710.114 942.652 729.098C934.414 748.081 922.594 764.737 907.192 779.064C891.79 793.392 871.195 805.391 845.405 815.062C819.974 824.374 788.633 831.359 751.382 836.015C714.489 840.672 670.254 843 618.675 843H0.272003ZM584.29 757.036C624.406 757.036 659.15 756.499 688.521 755.424C717.892 753.991 742.786 751.305 763.202 747.365C783.619 743.067 800.095 737.157 812.632 729.635C825.168 721.755 834.839 711.547 841.644 699.01C848.808 686.116 853.644 670.535 856.151 652.267C858.658 634 859.912 611.972 859.912 586.183C859.912 566.124 858.658 548.752 856.151 534.067C853.644 519.023 848.808 506.487 841.644 496.458C834.839 486.07 825.168 477.832 812.632 471.743C800.095 465.296 783.619 460.281 763.202 456.699C742.786 453.118 717.892 450.789 688.521 449.715C659.15 448.282 624.406 447.566 584.29 447.566H103.429V757.036H584.29ZM584.29 361.602C619.392 361.602 649.658 360.885 675.089 359.453C700.52 358.02 722.19 355.334 740.099 351.394C758.009 347.454 772.515 342.081 783.619 335.275C794.722 328.112 803.319 318.978 809.408 307.874C815.855 296.771 820.153 283.518 822.303 268.116C824.452 252.356 825.526 233.73 825.526 212.239C825.526 189.316 823.019 170.69 818.004 156.363C812.99 142.035 804.035 131.111 791.141 123.589C778.246 115.709 760.695 110.515 738.488 108.008C716.638 105.143 688.521 103.71 654.135 103.71H103.429V361.602H584.29ZM2115.29 17.7458V430.373C2115.29 479.086 2114.58 523.501 2113.14 563.617C2112.07 603.734 2107.95 639.731 2100.79 671.609C2093.98 703.488 2083.06 731.247 2068.01 754.887C2052.97 778.527 2031.48 798.227 2003.54 813.987C1975.6 829.389 1939.96 840.851 1896.62 848.373C1853.64 856.253 1800.63 860.193 1737.59 860.193H1495.82C1432.78 860.193 1379.59 856.253 1336.25 848.373C1293.26 840.851 1257.8 829.389 1229.86 813.987C1201.93 798.227 1180.26 778.527 1164.85 754.887C1149.81 731.247 1138.71 703.488 1131.54 671.609C1124.74 639.731 1120.8 603.734 1119.72 563.617C1118.65 523.501 1118.11 479.086 1118.11 430.373V17.7458H1221.27V430.373C1221.27 481.951 1221.63 526.366 1222.34 563.617C1223.42 600.51 1226.46 631.672 1231.48 657.103C1236.49 682.534 1244.37 702.95 1255.12 718.352C1266.22 733.754 1281.98 745.574 1302.4 753.812C1322.81 762.051 1348.6 767.602 1379.76 770.468C1411.28 772.975 1449.97 774.229 1495.82 774.229H1737.59C1783.08 774.229 1821.58 772.975 1853.1 770.468C1884.62 767.602 1910.41 762.051 1930.47 753.812C1950.89 745.574 1966.65 733.754 1977.75 718.352C1988.86 702.95 1996.91 682.534 2001.93 657.103C2007.3 631.672 2010.35 600.51 2011.06 563.617C2011.78 526.366 2012.14 481.951 2012.14 430.373L2011.6 17.7458H2115.29ZM2270.34 17.7458H2407.88L2786.12 421.777L3164.36 17.7458H3301.9L2837.7 499.144V843H2734.54V499.144L2270.34 17.7458ZM3864.51 843H3761.35V17.7458H3942.42L4698.9 739.843V17.7458H4802.05V843H4664.51L3864.51 103.71V843ZM5679.73 0.553055C5742.77 0.553055 5795.78 4.49307 5838.77 12.3731C5882.11 19.8949 5917.75 31.5359 5945.68 47.296C5973.62 62.6978 5995.11 82.2188 6010.16 105.859C6025.2 129.499 6036.12 157.258 6042.93 189.137C6050.09 221.015 6054.21 257.012 6055.29 297.129C6056.72 337.245 6057.44 381.66 6057.44 430.373C6057.44 479.086 6056.72 523.501 6055.29 563.617C6054.21 603.734 6050.09 639.731 6042.93 671.609C6036.12 703.488 6025.2 731.247 6010.16 754.887C5995.11 778.527 5973.62 798.227 5945.68 813.987C5917.75 829.389 5882.11 840.851 5838.77 848.373C5795.78 856.253 5742.77 860.193 5679.73 860.193H5369.19C5306.15 860.193 5252.96 856.253 5209.62 848.373C5166.64 840.851 5131.18 829.389 5103.24 813.987C5075.3 798.227 5053.63 778.527 5038.23 754.887C5023.18 731.247 5012.08 703.488 5004.92 671.609C4998.11 639.731 4994.17 603.734 4993.1 563.617C4992.02 523.501 4991.48 479.086 4991.48 430.373C4991.48 381.66 4992.02 337.245 4993.1 297.129C4994.17 257.012 4998.11 221.015 5004.92 189.137C5012.08 157.258 5023.18 129.499 5038.23 105.859C5053.63 82.2188 5075.3 62.6978 5103.24 47.296C5131.18 31.5359 5166.64 19.8949 5209.62 12.3731C5252.96 4.49307 5306.15 0.553055 5369.19 0.553055H5679.73ZM5679.73 774.229C5725.22 774.229 5763.55 772.975 5794.71 770.468C5826.23 767.602 5852.2 762.051 5872.61 753.812C5893.03 745.574 5908.79 733.754 5919.89 718.352C5931 702.95 5939.06 682.534 5944.07 657.103C5949.09 631.672 5951.95 600.51 5952.67 563.617C5953.74 526.366 5954.28 481.951 5954.28 430.373C5954.28 378.795 5953.74 334.559 5952.67 297.666C5951.95 260.415 5949.09 229.074 5944.07 203.643C5939.06 178.212 5931 157.795 5919.89 142.394C5908.79 126.992 5893.03 115.172 5872.61 106.933C5852.56 98.6953 5826.77 93.3225 5795.25 90.8152C5764.08 87.9498 5725.58 86.517 5679.73 86.517H5369.19C5323.34 86.517 5284.66 87.9498 5253.14 90.8152C5221.97 93.3225 5196.19 98.6953 5175.77 106.933C5155.35 115.172 5139.59 126.992 5128.49 142.394C5117.38 157.795 5109.33 178.212 5104.31 203.643C5099.3 229.074 5096.43 260.415 5095.71 297.666C5095 334.559 5094.64 378.795 5094.64 430.373C5094.64 481.951 5095 526.366 5095.71 563.617C5096.79 600.51 5099.83 631.672 5104.85 657.103C5109.86 682.534 5117.74 702.95 5128.49 718.352C5139.59 733.754 5155.35 745.574 5175.77 753.812C5196.19 762.051 5221.97 767.602 5253.14 770.468C5284.66 772.975 5323.34 774.229 5369.19 774.229H5679.73ZM6994.21 17.7458H7114.56L7449.82 757.036L7776.49 17.7458H7896.84L7518.59 843H7381.05L7054.39 120.903L6727.73 843H6590.18L6177.56 17.7458H6297.91L6658.96 757.036L6994.21 17.7458ZM8016.96 17.7458H8120.11L8094.32 602.301H8042.75L8016.96 17.7458ZM8120.11 843H8016.96V739.843H8120.11V843Z" fill="white"/>
</svg>
