<svg width="13428" height="890" viewBox="0 0 13428 890" fill="none" xmlns="http://www.w3.org/2000/svg">
<path d="M249.226 872C195.855 872 152.862 867.182 120.246 857.545C87.6305 847.909 62.4275 831.972 44.6372 809.734C26.8468 787.496 14.9866 758.216 9.05649 721.894C3.12638 685.572 0.161324 640.726 0.161324 587.355V551.774H106.903V587.355C106.903 631.831 109.312 667.226 114.131 693.541C118.949 719.485 126.917 739.314 138.036 753.027C149.155 766.741 163.795 775.636 181.956 779.713C200.117 783.419 222.54 785.272 249.226 785.272H498.291C533.871 785.272 563.151 782.122 586.13 775.821C609.11 769.15 627.27 759.143 640.613 745.8C653.956 732.457 663.222 715.593 668.411 695.209C673.599 674.824 676.194 650.733 676.194 622.935V18.0641H782.936V622.935C782.936 667.411 778.118 705.401 768.481 736.905C758.845 768.408 742.908 794.167 720.67 814.181C698.432 834.196 669.152 848.836 632.83 858.101C596.508 867.367 551.662 872 498.291 872H249.226ZM1666.34 0.273787C1731.57 0.273787 1786.42 4.35074 1830.9 12.5046C1875.74 20.2879 1912.62 32.3334 1941.53 48.6412C1970.44 64.5784 1992.68 84.7779 2008.24 109.24C2023.81 133.701 2035.12 162.425 2042.16 195.411C2049.57 228.398 2053.83 265.646 2054.94 307.157C2056.43 348.668 2057.17 394.626 2057.17 445.032C2057.17 495.438 2056.43 541.396 2054.94 582.907C2053.83 624.418 2049.57 661.666 2042.16 694.653C2035.12 727.639 2023.81 756.363 2008.24 780.825C1992.68 805.286 1970.44 825.671 1941.53 841.979C1912.62 857.916 1875.74 869.776 1830.9 877.559C1786.42 885.713 1731.57 889.79 1666.34 889.79H1345C1279.77 889.79 1224.73 885.713 1179.88 877.559C1135.41 869.776 1098.71 857.916 1069.8 841.979C1040.9 825.671 1018.47 805.286 1002.54 780.825C986.969 756.363 975.479 727.639 968.066 694.653C961.024 661.666 956.948 624.418 955.836 582.907C954.724 541.396 954.168 495.438 954.168 445.032C954.168 394.626 954.724 348.668 955.836 307.157C956.948 265.646 961.024 228.398 968.066 195.411C975.479 162.425 986.969 133.701 1002.54 109.24C1018.47 84.7779 1040.9 64.5784 1069.8 48.6412C1098.71 32.3334 1135.41 20.2879 1179.88 12.5046C1224.73 4.35074 1279.77 0.273787 1345 0.273787H1666.34ZM1666.34 800.839C1713.41 800.839 1753.06 799.541 1785.31 796.947C1817.93 793.982 1844.8 788.237 1865.92 779.713C1887.05 771.188 1903.36 758.957 1914.85 743.02C1926.34 727.083 1934.67 705.957 1939.86 679.642C1945.05 653.327 1948.02 621.082 1948.76 582.907C1949.87 544.361 1950.43 498.403 1950.43 445.032C1950.43 391.661 1949.87 345.888 1948.76 307.713C1948.02 269.167 1945.05 236.737 1939.86 210.422C1934.67 184.107 1926.34 162.981 1914.85 147.044C1903.36 131.107 1887.05 118.876 1865.92 110.351C1845.17 101.827 1818.48 96.2674 1785.87 93.673C1753.62 90.708 1713.78 89.2254 1666.34 89.2254H1345C1297.56 89.2254 1257.53 90.708 1224.91 93.673C1192.67 96.2674 1165.98 101.827 1144.86 110.351C1123.73 118.876 1107.42 131.107 1095.93 147.044C1084.44 162.981 1076.11 184.107 1070.92 210.422C1065.73 236.737 1062.76 269.167 1062.02 307.713C1061.28 345.888 1060.91 391.661 1060.91 445.032C1060.91 498.403 1061.28 544.361 1062.02 582.907C1063.13 621.082 1066.28 653.327 1071.47 679.642C1076.66 705.957 1084.82 727.083 1095.93 743.02C1107.42 758.957 1123.73 771.188 1144.86 779.713C1165.98 788.237 1192.67 793.982 1224.91 796.947C1257.53 799.541 1297.56 800.839 1345 800.839H1666.34ZM2235.07 18.0641H2341.81V872H2235.07V18.0641ZM2662.04 872H2555.3V18.0641H2742.65L3525.43 765.258V18.0641H3632.17V872H3489.85L2662.04 107.016V872ZM5020.37 18.0641V107.016H4593.4V872H4486.66V107.016H4059.69V18.0641H5020.37ZM6087.79 18.0641H6194.53V872H6087.79V480.613H5305.02V872H5198.27V18.0641H5305.02V391.661H6087.79V18.0641ZM6408.02 872V18.0641H7261.95V107.016H6514.76V391.661H7226.37V480.613H6514.76V783.048H7261.95V872H6408.02ZM7653.34 872V18.0641H7760.08V783.048H8436.11V872H7653.34ZM8578.44 872V18.0641H9432.37V107.016H8685.18V391.661H9396.79V480.613H8685.18V783.048H9432.37V872H8578.44ZM10500.3 284.919C10500.3 240.443 10495.5 205.233 10485.9 179.289C10476.3 153.345 10460.3 133.701 10438.1 120.359C10415.8 107.016 10386.6 98.4912 10350.2 94.7849C10313.9 91.0786 10269.1 89.2254 10215.7 89.2254H9929.95C9882.5 89.2254 9842.48 90.708 9809.86 93.673C9777.62 96.2674 9750.93 101.827 9729.8 110.351C9708.68 118.876 9692.37 131.107 9680.88 147.044C9669.39 162.981 9661.05 184.107 9655.86 210.422C9650.67 236.737 9647.71 269.167 9646.97 307.713C9646.23 345.888 9645.86 391.661 9645.86 445.032C9645.86 498.403 9646.23 544.361 9646.97 582.907C9648.08 621.082 9651.23 653.327 9656.42 679.642C9661.61 705.957 9669.76 727.083 9680.88 743.02C9692.37 758.957 9708.68 771.188 9729.8 779.713C9750.93 788.237 9777.62 793.982 9809.86 796.947C9842.48 799.541 9882.5 800.839 9929.95 800.839H10216.3C10257.8 800.839 10293.5 799.727 10323.6 797.503C10353.6 795.279 10379.2 791.202 10400.3 785.272C10421.4 779.342 10438.5 771.188 10451.4 760.81C10464.4 750.433 10474.4 737.461 10481.4 721.894C10488.9 705.957 10493.9 687.055 10496.5 665.187C10499.1 642.949 10500.3 617.005 10500.3 587.355V533.984H10072.3V445.032H10607.1V587.355C10607.1 622.935 10604.9 655.18 10600.4 684.09C10596 712.628 10588 738.202 10576.5 760.81C10565.4 783.048 10550.4 802.321 10531.5 818.629C10512.6 834.937 10488.7 848.465 10459.8 859.213C10430.9 869.591 10396.4 877.189 10356.4 882.007C10316.3 887.196 10269.6 889.79 10216.3 889.79H9929.95C9864.71 889.79 9809.68 885.713 9764.83 877.559C9720.35 869.776 9683.66 857.916 9654.75 841.979C9625.84 825.671 9603.42 805.286 9587.48 780.825C9571.92 756.363 9560.43 727.639 9553.01 694.653C9545.97 661.666 9541.89 624.418 9540.78 582.907C9539.67 541.396 9539.11 495.438 9539.11 445.032C9539.11 394.626 9539.67 348.668 9540.78 307.157C9541.89 265.646 9545.97 228.398 9553.01 195.411C9560.43 162.425 9571.92 133.701 9587.48 109.24C9603.42 84.7779 9625.84 64.5784 9654.75 48.6412C9683.66 32.3334 9720.35 20.2879 9764.83 12.5046C9809.68 4.35074 9864.71 0.273787 9929.95 0.273787H10215.7C10269.1 0.273787 10315.8 2.86821 10355.8 8.05706C10395.8 12.8753 10430.3 20.4732 10459.2 30.8509C10488.1 40.858 10512 53.6448 10530.9 69.2113C10550.2 84.7779 10565.4 103.124 10576.5 124.25C10588 145.376 10596 169.282 10600.4 195.967C10604.9 222.653 10607.1 252.303 10607.1 284.919H10500.3ZM10785.5 18.0641H10892.3V872H10785.5V18.0641ZM11782.4 0.273787C11847.6 0.273787 11902.4 4.35074 11946.9 12.5046C11991.8 20.2879 12028.6 32.3334 12057.6 48.6412C12086.5 64.5784 12108.7 84.7779 12124.3 109.24C12139.8 133.701 12151.1 162.425 12158.2 195.411C12165.6 228.398 12169.9 265.646 12171 307.157C12172.5 348.668 12173.2 394.626 12173.2 445.032C12173.2 495.438 12172.5 541.396 12171 582.907C12169.9 624.418 12165.6 661.666 12158.2 694.653C12151.1 727.639 12139.8 756.363 12124.3 780.825C12108.7 805.286 12086.5 825.671 12057.6 841.979C12028.6 857.916 11991.8 869.776 11946.9 877.559C11902.4 885.713 11847.6 889.79 11782.4 889.79H11461C11395.8 889.79 11340.8 885.713 11295.9 877.559C11251.4 869.776 11214.7 857.916 11185.8 841.979C11156.9 825.671 11134.5 805.286 11118.6 780.825C11103 756.363 11091.5 727.639 11084.1 694.653C11077.1 661.666 11073 624.418 11071.9 582.907C11070.8 541.396 11070.2 495.438 11070.2 445.032C11070.2 394.626 11070.8 348.668 11071.9 307.157C11073 265.646 11077.1 228.398 11084.1 195.411C11091.5 162.425 11103 133.701 11118.6 109.24C11134.5 84.7779 11156.9 64.5784 11185.8 48.6412C11214.7 32.3334 11251.4 20.2879 11295.9 12.5046C11340.8 4.35074 11395.8 0.273787 11461 0.273787H11782.4ZM11782.4 800.839C11829.4 800.839 11869.1 799.541 11901.3 796.947C11934 793.982 11960.8 788.237 11981.9 779.713C12003.1 771.188 12019.4 758.957 12030.9 743.02C12042.4 727.083 12050.7 705.957 12055.9 679.642C12061.1 653.327 12064 621.082 12064.8 582.907C12065.9 544.361 12066.5 498.403 12066.5 445.032C12066.5 391.661 12065.9 345.888 12064.8 307.713C12064 269.167 12061.1 236.737 12055.9 210.422C12050.7 184.107 12042.4 162.981 12030.9 147.044C12019.4 131.107 12003.1 118.876 11981.9 110.351C11961.2 101.827 11934.5 96.2674 11901.9 93.673C11869.6 90.708 11829.8 89.2254 11782.4 89.2254H11461C11413.6 89.2254 11373.6 90.708 11340.9 93.673C11308.7 96.2674 11282 101.827 11260.9 110.351C11239.8 118.876 11223.5 131.107 11212 147.044C11200.5 162.981 11192.1 184.107 11186.9 210.422C11181.8 236.737 11178.8 269.167 11178 307.713C11177.3 345.888 11176.9 391.661 11176.9 445.032C11176.9 498.403 11177.3 544.361 11178 582.907C11179.2 621.082 11182.3 653.327 11187.5 679.642C11192.7 705.957 11200.8 727.083 11212 743.02C11223.5 758.957 11239.8 771.188 11260.9 779.713C11282 788.237 11308.7 793.982 11340.9 796.947C11373.6 799.541 11413.6 800.839 11461 800.839H11782.4ZM12457.8 872H12351.1V18.0641H12538.5L13321.2 765.258V18.0641H13428V872H13285.6L12457.8 107.016V872Z" fill="white"/>
</svg>
