<svg width="3256" height="724" viewBox="0 0 3256 724" fill="none" xmlns="http://www.w3.org/2000/svg">
<path d="M33.8711 480.434C30.1145 470.416 28.2362 456.433 28.2362 438.485C28.2362 420.537 34.2885 367.527 46.3931 279.456C58.4977 191.384 64.55 120.635 64.55 67.2076C64.55 54.6856 63.7152 37.5722 62.0456 15.8674C93.768 17.537 113.595 25.0502 121.525 38.407C125.699 45.9202 128.412 53.2247 129.664 60.3205C130.917 66.9989 131.543 77.8513 131.543 92.8777C131.543 107.487 124.656 163.21 110.881 260.047C97.5246 356.466 90.6375 425.128 90.2201 466.034C92.3071 465.616 96.0637 465.408 101.49 465.408C191.648 465.408 258.85 459.147 303.094 446.625C300.173 470.834 291.824 489.617 278.05 502.974C264.693 516.33 247.789 523.009 227.336 523.009C221.493 523.009 203.336 521.548 172.865 518.626C142.813 516.122 113.595 514.869 85.2113 514.869C56.8281 514.869 28.4449 517.583 0.0616305 523.009C5.48784 504.643 16.7576 490.452 33.8711 480.434ZM745.669 305.126L689.946 304.5C669.494 304.5 653.841 304.917 642.989 305.752C636.31 365.023 632.971 418.241 632.971 465.408C729.39 465.408 799.096 459.147 842.089 446.625C839.167 470.834 830.819 489.617 817.045 502.974C803.688 516.33 786.783 523.009 766.33 523.009C760.487 523.009 742.33 521.548 711.86 518.626C681.807 516.122 652.589 514.869 624.206 514.869C595.822 514.869 567.439 517.583 539.056 523.009C542.395 509.235 550.326 497.339 562.848 487.321C562.43 484.817 562.222 476.886 562.222 463.529C562.222 450.172 568.274 400.711 580.379 315.143C568.691 318.065 558.674 321.196 550.326 324.535C549.491 317.022 549.074 310.969 549.074 306.378C549.074 280.917 562.013 265.055 587.892 258.794C597.492 188.671 602.709 132.739 603.544 90.9994C592.692 90.1646 584.97 87.4515 580.379 82.8601C576.205 78.2687 574.118 70.1294 574.118 58.4422C574.118 46.3376 575.787 35.6939 579.126 26.5111C622.119 32.3547 668.867 35.2765 719.373 35.2765C769.878 35.2765 818.088 30.6851 864.002 21.5023C861.498 37.3635 855.654 50.3029 846.471 60.3205C837.706 69.9207 823.514 76.8078 803.896 80.9818C784.279 85.1558 768 87.6602 755.061 88.495C731.686 90.582 702.886 91.6255 668.659 91.6255C668.241 106.652 661.772 161.54 649.25 256.29C675.128 257.125 693.911 257.542 705.599 257.542C742.33 257.542 768.417 251.49 783.861 239.385C784.696 246.064 785.113 251.49 785.113 255.664C785.113 288.639 771.965 305.126 745.669 305.126ZM1378.57 321.404L1377.94 305.752L1376.69 290.099C1384.2 289.265 1391.93 288.847 1399.86 288.847C1419.06 288.847 1432.41 293.021 1439.93 301.369C1447.44 309.3 1451.2 323.074 1451.2 342.692C1451.2 469.999 1429.7 569.34 1386.71 640.716C1371.68 665.342 1352.06 685.378 1327.85 700.821C1304.06 716.265 1276.93 723.987 1246.46 723.987C1205.14 723.987 1174.04 712.717 1153.17 690.178C1132.3 668.055 1121.87 643.22 1121.87 615.672C1121.87 588.541 1127.92 567.045 1140.02 551.183C1152.55 535.74 1167.99 528.018 1186.36 528.018C1198.04 528.018 1208.9 531.566 1218.91 538.661C1200.96 563.288 1191.99 587.706 1191.99 611.915C1191.99 662.421 1212.23 687.673 1252.72 687.673C1293.21 687.673 1323.89 663.881 1344.76 616.298C1365.63 568.714 1377.94 502.347 1381.7 417.198C1366.67 444.329 1347.89 464.99 1325.35 479.182C1302.81 492.956 1279.23 499.843 1254.6 499.843C1215.37 499.843 1181.76 483.564 1153.8 451.007C1126.25 418.45 1112.48 373.162 1112.48 315.143C1112.48 235.003 1131.89 165.714 1170.7 107.278C1189.9 78.4774 1214.53 55.7291 1244.58 39.0331C1275.05 21.9197 1309.7 13.3629 1348.52 13.3629C1387.33 13.3629 1416.76 24.0067 1436.8 45.2941C1457.25 66.1641 1467.47 91.6255 1467.47 121.678C1467.47 151.314 1458.71 174.688 1441.18 191.802C1424.07 208.498 1403.61 216.846 1379.82 216.846C1345.18 216.846 1319.09 204.741 1301.56 180.532C1312.83 183.454 1323.47 184.915 1333.49 184.915C1357.28 184.915 1375.86 177.819 1389.21 163.627C1402.99 149.435 1409.87 133.157 1409.87 114.791C1409.87 96.0082 1403.61 80.5644 1391.09 68.4598C1378.57 55.9378 1360.83 49.6768 1337.87 49.6768C1307.4 49.6768 1279.64 63.6597 1254.6 91.6255C1229.97 119.591 1211.19 153.401 1198.25 193.054C1185.73 232.707 1179.47 274.238 1179.47 317.648C1179.47 360.64 1188.65 394.449 1207.02 419.076C1225.8 443.703 1248.76 456.016 1275.89 456.016C1303.02 456.016 1326.81 443.911 1347.26 419.702C1368.13 395.076 1378.57 362.31 1378.57 321.404ZM1846.59 38.407C1850.77 45.9202 1853.48 53.2247 1854.73 60.3205C1855.98 66.9989 1856.61 78.6861 1856.61 95.3821C1856.61 112.078 1849.72 167.592 1835.95 261.925C1822.18 356.257 1815.29 422.415 1815.29 460.399C1815.29 497.965 1818.21 523.635 1824.05 537.409C1798.18 528.226 1779.81 515.913 1768.96 500.469C1758.52 484.608 1753.3 466.242 1753.3 445.372C1753.3 424.085 1757.69 381.093 1766.45 316.396C1781.9 209.124 1789.62 126.061 1789.62 67.2076C1789.62 54.6856 1788.78 37.5722 1787.11 15.8674C1818.84 17.537 1838.66 25.0502 1846.59 38.407ZM2489.44 236.255C2489.44 174.897 2480.05 130.235 2461.27 102.269C2442.48 74.3034 2417.02 60.3205 2384.88 60.3205C2352.74 60.3205 2323.11 73.0512 2295.98 98.5126C2268.85 123.974 2248.18 155.905 2233.99 194.306C2219.8 232.289 2212.71 271.316 2212.71 311.387C2212.71 365.231 2222.51 409.476 2242.13 444.12C2262.17 478.764 2292.01 496.086 2331.66 496.086C2363.8 496.086 2392.19 482.938 2416.81 456.642C2441.44 430.346 2459.6 397.789 2471.29 358.97C2483.39 320.152 2489.44 279.247 2489.44 236.255ZM2480.68 465.408C2462.73 485.86 2440.19 502.347 2413.06 514.869C2386.34 527.392 2356.92 533.653 2324.78 533.653C2293.06 533.653 2264.88 526.139 2240.25 511.113C2216.04 496.086 2196.84 476.051 2182.65 451.007C2153.85 400.084 2139.45 341.857 2139.45 276.325C2139.45 210.793 2155.52 152.566 2187.66 101.643C2219.8 50.3029 2261.54 16.4935 2312.88 0.214852C2319.98 1.88446 2323.94 5.22365 2324.78 10.2324C2295.56 28.1807 2271.56 49.2594 2252.78 73.4686C2234.41 97.6778 2221.68 130.444 2214.58 171.766C2232.11 122.931 2259.45 84.5297 2296.6 56.5639C2333.75 28.5981 2372.57 14.6152 2413.06 14.6152C2453.96 14.6152 2488.61 32.146 2516.99 67.2076C2545.79 101.852 2560.19 152.149 2560.19 218.098C2560.19 282.377 2548.71 340.605 2525.76 392.78C2513.65 420.328 2498.62 444.538 2480.68 465.408ZM2904.4 469.164C2904.4 482.104 2905.23 499.426 2906.9 521.131C2863.49 521.131 2841.79 507.982 2841.79 481.686C2841.79 477.512 2849.72 420.746 2865.58 311.387C2881.86 202.028 2889.99 126.061 2889.99 83.4862L2886.24 77.8513C2878.73 66.5815 2871.42 58.4422 2864.32 53.4334C2857.65 48.4246 2851.39 44.2506 2845.54 40.9114C2839.7 37.1548 2836.36 34.8591 2835.52 34.0243C2852.64 21.9197 2869.33 15.8674 2885.61 15.8674C2914.83 15.8674 2937.79 28.3894 2954.48 53.4334C2978.28 89.7472 3018.55 166.34 3075.32 283.212C3112.05 358.762 3140.23 410.937 3159.84 439.737C3160.68 413.859 3166.52 357.927 3177.38 271.942C3188.23 185.958 3193.65 117.713 3193.65 67.2076C3193.65 54.2682 3192.82 37.3635 3191.15 16.4934C3234.14 16.4934 3255.64 29.2242 3255.64 54.6856C3255.64 59.277 3247.71 117.504 3231.85 229.368C3215.98 341.231 3208.05 418.659 3208.05 461.651C3208.05 477.095 3208.47 488.365 3209.31 495.46C3212.65 498.382 3218.07 501.93 3225.58 506.104C3203.88 522.8 3183.84 531.148 3165.48 531.148C3147.11 531.148 3130.83 518.835 3116.64 494.208C3109.55 483.773 3095.98 459.564 3075.95 421.581C3005.41 286.76 2958.45 198.897 2935.07 157.992C2934.24 168.01 2928.81 210.793 2918.8 286.343C2909.2 361.892 2904.4 422.833 2904.4 469.164Z" fill="black"/>
</svg>
