<svg width="3684" height="447" viewBox="0 0 3684 447" fill="none" xmlns="http://www.w3.org/2000/svg">
<path d="M0.530815 4.7296H220.292V405.434H458.21V443H0.530815V4.7296ZM681.782 4.7296H1136.96V41.6695H902.169V203.83H1017.37V241.396H902.169V405.434H1136.96V443H681.782V4.7296ZM1307.39 223.239C1307.39 149.359 1325.55 94.4707 1361.86 58.5743C1385.24 35.1998 1411.33 19.756 1440.13 12.2428C1468.93 4.72962 1506.7 0.973011 1553.45 0.973011C1596.86 0.973011 1631.71 4.10351 1658.01 10.3645C1684.72 16.2081 1706.64 28.9388 1723.75 48.5566C1737.94 64.8353 1749 84.6618 1756.93 108.036C1765.28 130.993 1770.08 153.533 1771.33 175.655H1735.65C1733.98 156.872 1729.39 137.672 1721.87 118.054C1714.78 98.0186 1703.51 80.9052 1688.06 66.7136C1672.62 52.1046 1653 44.8 1629.21 44.8C1607.09 44.8 1588.72 54.6089 1574.11 74.2268C1561.59 91.3402 1552.62 114.089 1547.19 142.472C1542.18 167.516 1539.68 194.438 1539.68 223.239C1539.68 270.405 1545.52 309.849 1557.21 341.572C1572.65 382.06 1596.65 402.303 1629.21 402.303V228.874H1820.8V443C1760.69 443 1692.65 443.835 1616.69 445.504L1553.45 446.131C1507.54 446.131 1470.18 441.748 1441.38 432.982C1413 423.8 1388.58 408.982 1368.13 388.529C1327.64 348.041 1307.39 292.945 1307.39 223.239ZM2043.67 4.7296H2247.78V443H2043.67V4.7296ZM2764.2 446.131C2708.27 446.131 2657.76 437.574 2612.68 420.46C2567.6 403.347 2531.91 378.094 2505.62 344.702C2479.74 310.893 2466.8 270.405 2466.8 223.239C2466.8 176.49 2479.95 136.419 2506.24 103.027C2532.54 69.6354 2568.02 44.3826 2612.68 27.2692C2657.76 9.73842 2708.27 0.973011 2764.2 0.973011C2819.71 0.973011 2869.8 9.73842 2914.46 27.2692C2959.54 44.3826 2995.02 69.6354 3020.9 103.027C3047.19 136.419 3060.34 176.49 3060.34 223.239C3060.34 270.405 3047.19 310.893 3020.9 344.702C2995.02 378.094 2959.54 403.347 2914.46 420.46C2869.8 437.574 2819.71 446.131 2764.2 446.131ZM2764.2 409.191C2781.73 409.191 2794.67 401.26 2803.02 385.399C2810.11 373.294 2814.91 351.798 2817.42 320.91C2818.67 304.632 2819.29 272.075 2819.29 223.239C2819.29 173.985 2818.25 139.133 2816.16 118.68C2814.91 93.6359 2810.32 74.6442 2802.39 61.7048C2794.04 45.8436 2781.31 37.913 2764.2 37.913C2746.67 37.913 2733.52 45.8436 2724.75 61.7048C2717.66 74.2268 2713.07 93.2185 2710.98 118.68C2709.31 140.385 2708.47 175.238 2708.47 223.239C2708.47 277.501 2709.1 310.058 2710.35 320.91C2712.02 349.711 2716.61 371.207 2724.13 385.399C2732.89 401.26 2746.25 409.191 2764.2 409.191ZM3279 4.7296H3463.07L3645.89 223.865V4.7296H3683.46V443H3536.33L3317.19 151.237V443H3279V4.7296Z" fill="black"/>
</svg>
