<svg width="3302" height="702" viewBox="0 0 3302 702" fill="none" xmlns="http://www.w3.org/2000/svg">
<path d="M160.673 621.923C185.792 621.923 204.631 620.178 217.19 616.689C222.772 636.227 225.563 655.415 225.563 674.254C225.563 685.418 220.679 691 210.911 691H4.7252V109.075L0.538689 10.6924C24.2622 7.20369 47.6369 5.45931 70.6627 5.45931C81.8267 5.45931 87.4087 11.3902 87.4087 23.252V621.923H160.673ZM719.522 337.24C744.641 337.24 763.481 335.496 776.04 332.007C781.622 351.544 784.413 370.732 784.413 389.571C784.413 400.735 779.529 406.317 769.76 406.317H708.009C693.357 406.317 681.495 410.155 672.424 417.83C664.051 425.506 659.865 435.623 659.865 448.183V590.524C659.865 603.781 664.051 614.247 672.424 621.923C681.495 628.9 693.357 632.389 708.009 632.389C722.662 632.389 734.524 628.9 743.595 621.923C752.666 614.247 757.201 603.781 757.201 590.524V564.358L754.061 510.98C763.83 508.887 773.598 507.84 783.367 507.84C793.135 507.84 802.904 509.236 812.672 512.027C830.814 516.911 839.884 525.633 839.884 538.192V605.177C839.884 633.784 828.023 657.159 804.299 675.301C780.576 692.744 748.479 701.466 708.009 701.466C668.238 701.466 636.49 691.698 612.766 672.161C589.043 652.624 577.181 625.411 577.181 590.524V443.996C577.181 412.597 587.298 388.525 607.533 371.779C587.298 355.033 577.181 330.96 577.181 299.562V111.169C577.181 76.2811 589.043 49.0688 612.766 29.5317C636.49 9.9947 667.889 0.226183 706.963 0.226183C746.735 0.226183 778.133 9.29696 801.159 27.4385C824.185 44.8823 835.698 67.9081 835.698 96.5159V184.433C835.698 196.992 826.627 205.714 808.486 210.598C798.717 213.389 788.949 214.785 779.18 214.785C769.412 214.785 759.643 213.738 749.875 211.645C751.968 194.899 753.014 177.106 753.014 158.267V111.169C753.014 83.2586 737.664 69.3035 706.963 69.3035C692.31 69.3035 680.797 73.1412 672.424 80.8165C664.051 87.794 659.865 97.9114 659.865 111.169V295.375C659.865 307.935 663.702 318.052 671.378 325.727C679.751 333.402 690.566 337.24 703.823 337.24H719.522ZM1394.25 438.763C1375.41 438.763 1356.57 440.507 1337.73 443.996C1332.15 424.459 1329.35 405.271 1329.35 386.432C1329.35 375.268 1334.24 369.686 1344.01 369.686H1476.93V602.037C1476.93 616.689 1479.72 627.156 1485.3 633.436C1490.88 639.715 1501 642.855 1515.65 642.855C1516.35 660.997 1511.47 675.301 1501 685.767C1491.23 696.233 1476.93 701.466 1458.09 701.466C1428.78 701.466 1409.94 690.651 1401.57 669.021C1382.03 690.651 1355.17 701.466 1320.98 701.466C1249.81 701.466 1214.23 667.974 1214.23 600.99V111.169C1214.23 76.2811 1226.09 49.0688 1249.81 29.5317C1273.53 9.9947 1305.28 0.226183 1345.05 0.226183C1385.52 0.226183 1417.62 9.29696 1441.34 27.4385C1465.07 44.8823 1476.93 67.9081 1476.93 96.5159V215.831C1476.93 228.391 1467.86 237.113 1449.72 241.997C1439.95 244.788 1430.18 246.184 1420.41 246.184C1410.64 246.184 1400.87 245.137 1391.11 243.044C1393.2 226.298 1394.25 208.505 1394.25 189.666V111.169C1394.25 97.9114 1389.71 87.794 1380.64 80.8165C1371.57 73.1412 1359.71 69.3035 1345.05 69.3035C1330.4 69.3035 1318.54 73.1412 1309.47 80.8165C1301.1 87.794 1296.91 97.9114 1296.91 111.169V594.71C1296.91 619.829 1309.47 632.389 1334.59 632.389C1360.4 632.389 1380.29 620.178 1394.25 595.757V438.763ZM1872.71 678.44V109.075L1868.52 10.6924C1892.25 7.20369 1915.62 5.45931 1938.65 5.45931C1949.81 5.45931 1955.39 11.3902 1955.39 23.252V592.617L1959.58 691C1935.86 694.489 1912.48 696.233 1889.46 696.233C1878.29 696.233 1872.71 690.302 1872.71 678.44ZM2342.98 594.71V111.169C2342.98 76.2811 2354.84 49.0688 2378.57 29.5317C2402.29 9.9947 2434.73 0.226183 2475.9 0.226183C2517.07 0.226183 2548.82 9.29696 2571.14 27.4385C2594.17 45.58 2605.68 72.0946 2605.68 106.982V590.524C2605.68 625.411 2593.47 652.624 2569.05 672.161C2545.33 691.698 2512.88 701.466 2471.71 701.466C2430.55 701.466 2398.8 692.396 2376.47 674.254C2354.14 656.112 2342.98 629.598 2342.98 594.71ZM2425.66 111.169V590.524C2425.66 603.083 2429.85 613.201 2438.22 620.876C2447.29 628.551 2459.16 632.389 2473.81 632.389C2488.46 632.389 2500.32 628.9 2509.39 621.923C2518.46 614.247 2523 603.781 2523 590.524V111.169C2523 97.9114 2518.46 87.794 2509.39 80.8165C2500.32 73.1412 2488.46 69.3035 2473.81 69.3035C2459.16 69.3035 2447.29 73.1412 2438.22 80.8165C2429.85 87.794 2425.66 97.9114 2425.66 111.169ZM3137.77 79.7698C3118.93 79.7698 3100.09 89.1895 3081.25 108.029V592.617L3085.44 691C3061.72 694.489 3038.34 696.233 3015.31 696.233C3004.15 696.233 2998.57 690.302 2998.57 678.44V112.215C2998.57 96.8647 2995.78 86.0496 2990.2 79.7698C2984.61 72.7923 2974.5 69.3035 2959.84 69.3035C2959.15 51.162 2964.03 36.8581 2974.5 26.3918C2984.96 15.9256 3001.71 10.6924 3024.73 10.6924C3047.76 10.6924 3064.16 22.2053 3073.93 45.2311C3101.14 22.2053 3129.05 10.6924 3157.66 10.6924C3226.73 10.6924 3261.27 44.8823 3261.27 113.262V602.037C3261.27 616.689 3264.06 627.156 3269.65 633.436C3275.93 639.018 3286.39 641.809 3301.04 641.809C3301.04 681.58 3278.72 701.466 3234.06 701.466C3197.08 701.466 3178.59 677.394 3178.59 629.249V119.542C3178.59 93.0271 3164.98 79.7698 3137.77 79.7698Z" fill="black"/>
</svg>
