<svg width="2945" height="487" viewBox="0 0 2945 487" fill="none" xmlns="http://www.w3.org/2000/svg">
<path d="M0.142629 474V27.6588L58.2281 0.144622H61.2853V418.36H270.699V421.417L245.936 474H0.142629ZM484.515 474V27.6588L516.92 12.3731H710.742V15.4303L685.979 68.0129H545.657V215.367H710.742V218.424L685.979 271.006H545.657V418.36H761.796V421.417L737.034 474H484.515ZM1335.13 215.367V379.229C1335.13 416.526 1312 444.753 1265.73 463.911C1239.85 474.713 1211.52 480.114 1180.75 480.114C1149.97 480.114 1121.64 474.713 1095.76 463.911C1049.49 444.753 1026.36 416.526 1026.36 379.229V107.144C1026.36 69.8472 1049.49 41.6197 1095.76 22.4617C1121.64 11.6598 1149.97 6.25889 1180.75 6.25889C1211.52 6.25889 1239.85 11.6598 1265.73 22.4617C1312 41.6197 1335.13 69.8472 1335.13 107.144V153.001L1277.05 180.515H1273.99V107.144C1273.99 93.0814 1261.66 81.1586 1237 71.3758C1219.88 64.6501 1201.13 61.2873 1180.75 61.2873C1160.36 61.2873 1141.61 64.6501 1124.49 71.3758C1099.83 81.1586 1087.5 93.0814 1087.5 107.144V379.229C1087.5 393.292 1099.83 405.215 1124.49 414.997C1141.61 421.723 1160.36 425.086 1180.75 425.086C1201.13 425.086 1219.88 421.723 1237 414.997C1261.66 405.215 1273.99 393.292 1273.99 379.229V271.006H1167.6V267.949L1192.36 215.367H1335.13ZM1645.25 486.229V27.6588L1703.33 0.144622H1706.39V458.714L1648.3 486.229H1645.25ZM2077.65 379.229C2077.65 393.088 2089.98 405.011 2114.64 414.997C2131.76 421.723 2150.51 425.086 2170.89 425.086C2191.27 425.086 2210.02 421.723 2227.14 414.997C2251.8 405.215 2264.13 393.292 2264.13 379.229V107.144C2264.13 93.2852 2251.8 81.3624 2227.14 71.3758C2210.02 64.6501 2191.27 61.2873 2170.89 61.2873C2150.51 61.2873 2131.76 64.6501 2114.64 71.3758C2089.98 81.1586 2077.65 93.0814 2077.65 107.144V379.229ZM2016.5 379.229C2016.5 379.229 2016.5 288.534 2016.5 107.144C2016.5 69.8472 2039.64 41.6197 2085.9 22.4617C2111.78 11.6598 2140.11 6.25889 2170.89 6.25889C2201.66 6.25889 2229.99 11.6598 2255.88 22.4617C2302.14 41.6197 2325.27 69.8472 2325.27 107.144V379.229C2325.27 416.526 2302.14 444.753 2255.88 463.911C2229.99 474.713 2201.66 480.114 2170.89 480.114C2140.11 480.114 2111.78 474.713 2085.9 463.911C2039.64 444.753 2016.5 416.526 2016.5 379.229ZM2635.39 486.229V107.144C2635.39 69.8472 2658.52 41.6197 2704.79 22.4617C2730.67 11.6598 2759 6.25889 2789.78 6.25889C2820.55 6.25889 2848.88 11.6598 2874.76 22.4617C2921.03 41.6197 2944.16 69.8472 2944.16 107.144V458.714L2886.07 486.229H2883.02V107.144C2883.02 93.0814 2870.69 81.1586 2846.03 71.3758C2828.91 64.6501 2810.16 61.2873 2789.78 61.2873C2769.39 61.2873 2750.64 64.6501 2733.52 71.3758C2708.86 81.1586 2696.53 93.0814 2696.53 107.144V458.714L2638.45 486.229H2635.39Z" fill="black"/>
</svg>
