<svg width="3287" height="391" viewBox="0 0 3287 391" fill="none" xmlns="http://www.w3.org/2000/svg">
<path d="M0.875 383V8H47.75V343.938H344.625V383H0.875ZM557.125 383V8H932.125V47.0625H604V172.062H916.5V211.125H604V343.938H932.125V383H557.125ZM1551.12 125.188C1551.12 105.656 1549 90.194 1544.77 78.8008C1540.54 67.4076 1533.54 58.7812 1523.78 52.9219C1514.01 47.0625 1501.15 43.319 1485.2 41.6914C1469.25 40.0638 1449.56 39.25 1426.12 39.25H1300.63C1279.8 39.25 1262.22 39.901 1247.9 41.2031C1233.74 42.3424 1222.02 44.7839 1212.74 48.5273C1203.46 52.2708 1196.3 57.6419 1191.26 64.6406C1186.21 71.6393 1182.55 80.9167 1180.27 92.4727C1177.99 104.029 1176.69 118.27 1176.36 135.197C1176.04 151.962 1175.88 172.062 1175.88 195.5C1175.88 218.938 1176.04 239.12 1176.36 256.047C1176.85 272.811 1178.24 286.971 1180.51 298.527C1182.79 310.083 1186.37 319.361 1191.26 326.359C1196.3 333.358 1203.46 338.729 1212.74 342.473C1222.02 346.216 1233.74 348.739 1247.9 350.041C1262.22 351.18 1279.8 351.75 1300.63 351.75H1426.36C1444.59 351.75 1460.3 351.262 1473.48 350.285C1486.67 349.309 1497.9 347.518 1507.17 344.914C1516.45 342.31 1523.94 338.729 1529.63 334.172C1535.33 329.615 1539.73 323.918 1542.82 317.082C1546.07 310.083 1548.27 301.783 1549.41 292.18C1550.55 282.414 1551.12 271.021 1551.12 258V234.562H1363.13V195.5H1597.99V258C1597.99 273.625 1597.02 287.785 1595.06 300.48C1593.11 313.013 1589.61 324.243 1584.57 334.172C1579.68 343.938 1573.09 352.401 1564.79 359.562C1556.49 366.724 1545.99 372.665 1533.3 377.385C1520.6 381.942 1505.46 385.279 1487.89 387.395C1470.31 389.673 1449.8 390.812 1426.36 390.812H1300.63C1271.99 390.812 1247.82 389.022 1228.12 385.441C1208.59 382.023 1192.48 376.815 1179.78 369.816C1167.09 362.655 1157.24 353.703 1150.24 342.961C1143.4 332.219 1138.36 319.605 1135.1 305.119C1132.01 290.633 1130.22 274.276 1129.73 256.047C1129.24 237.818 1129 217.635 1129 195.5C1129 173.365 1129.24 153.182 1129.73 134.953C1130.22 116.724 1132.01 100.367 1135.1 85.8809C1138.36 71.3952 1143.4 58.7812 1150.24 48.0391C1157.24 37.2969 1167.09 28.4264 1179.78 21.4277C1192.48 14.2663 1208.59 8.97656 1228.12 5.55859C1247.82 1.97786 1271.99 0.1875 1300.63 0.1875H1426.12C1449.56 0.1875 1470.06 1.32682 1487.64 3.60547C1505.22 5.72135 1520.36 9.05794 1533.05 13.6152C1545.75 18.0098 1556.25 23.625 1564.55 30.4609C1573.01 37.2969 1579.68 45.3535 1584.57 54.6309C1589.61 63.9082 1593.11 74.4062 1595.06 86.125C1597.02 97.8438 1597.99 110.865 1597.99 125.188H1551.12ZM1826.36 8H1873.24V383H1826.36V8ZM2414.11 0.1875C2442.75 0.1875 2466.84 1.97786 2486.37 5.55859C2506.07 8.97656 2522.26 14.2663 2534.96 21.4277C2547.65 28.4264 2557.42 37.2969 2564.25 48.0391C2571.09 58.7812 2576.05 71.3952 2579.15 85.8809C2582.4 100.367 2584.27 116.724 2584.76 134.953C2585.41 153.182 2585.74 173.365 2585.74 195.5C2585.74 217.635 2585.41 237.818 2584.76 256.047C2584.27 274.276 2582.4 290.633 2579.15 305.119C2576.05 319.605 2571.09 332.219 2564.25 342.961C2557.42 353.703 2547.65 362.655 2534.96 369.816C2522.26 376.815 2506.07 382.023 2486.37 385.441C2466.84 389.022 2442.75 390.812 2414.11 390.812H2272.99C2244.35 390.812 2220.18 389.022 2200.48 385.441C2180.95 382.023 2164.84 376.815 2152.14 369.816C2139.45 362.655 2129.6 353.703 2122.6 342.961C2115.77 332.219 2110.72 319.605 2107.47 305.119C2104.37 290.633 2102.58 274.276 2102.1 256.047C2101.61 237.818 2101.36 217.635 2101.36 195.5C2101.36 173.365 2101.61 153.182 2102.1 134.953C2102.58 116.724 2104.37 100.367 2107.47 85.8809C2110.72 71.3952 2115.77 58.7812 2122.6 48.0391C2129.6 37.2969 2139.45 28.4264 2152.14 21.4277C2164.84 14.2663 2180.95 8.97656 2200.48 5.55859C2220.18 1.97786 2244.35 0.1875 2272.99 0.1875H2414.11ZM2414.11 351.75C2434.78 351.75 2452.19 351.18 2466.35 350.041C2480.68 348.739 2492.48 346.216 2501.75 342.473C2511.03 338.729 2518.19 333.358 2523.24 326.359C2528.28 319.361 2531.95 310.083 2534.22 298.527C2536.5 286.971 2537.81 272.811 2538.13 256.047C2538.62 239.12 2538.86 218.938 2538.86 195.5C2538.86 172.062 2538.62 151.962 2538.13 135.197C2537.81 118.27 2536.5 104.029 2534.22 92.4727C2531.95 80.9167 2528.28 71.6393 2523.24 64.6406C2518.19 57.6419 2511.03 52.2708 2501.75 48.5273C2492.64 44.7839 2480.92 42.3424 2466.6 41.2031C2452.44 39.901 2434.94 39.25 2414.11 39.25H2272.99C2252.16 39.25 2234.58 39.901 2220.26 41.2031C2206.1 42.3424 2194.38 44.7839 2185.1 48.5273C2175.83 52.2708 2168.66 57.6419 2163.62 64.6406C2158.57 71.6393 2154.91 80.9167 2152.63 92.4727C2150.35 104.029 2149.05 118.27 2148.73 135.197C2148.4 151.962 2148.24 172.062 2148.24 195.5C2148.24 218.938 2148.4 239.12 2148.73 256.047C2149.21 272.811 2150.6 286.971 2152.88 298.527C2155.16 310.083 2158.74 319.361 2163.62 326.359C2168.66 333.358 2175.83 338.729 2185.1 342.473C2194.38 346.216 2206.1 348.739 2220.26 350.041C2234.58 351.18 2252.16 351.75 2272.99 351.75H2414.11ZM2860.74 383H2813.86V8H2896.14L3239.89 336.125V8H3286.76V383H3224.26L2860.74 47.0625V383Z" fill="black"/>
</svg>
